<svg xmlns="http://www.w3.org/2000/svg" width="500" height="500" viewBox="0 0 500 500">
  <defs>
    <linearGradient id="bg" x1="0%" y1="0%" x2="100%" y2="100%">
      <stop offset="0%" style="stop-color:#1e293b"/>
      <stop offset="100%" style="stop-color:#0f172a"/>
    </linearGradient>
    <linearGradient id="glow" x1="0%" y1="0%" x2="100%" y2="100%">
      <stop offset="0%" style="stop-color:#14b8a6"/>
      <stop offset="100%" style="stop-color:#0d9488"/>
    </linearGradient>
    <filter id="shadow">
      <feDropShadow dx="0" dy="4" stdDeviation="8" flood-color="#14b8a6" flood-opacity="0.3"/>
    </filter>
  </defs>
  <rect width="500" height="500" rx="250" fill="url(#bg)"/>
  <g opacity="0.05">
    <line x1="0" y1="100" x2="500" y2="100" stroke="#14b8a6" stroke-width="1"/>
    <line x1="0" y1="200" x2="500" y2="200" stroke="#14b8a6" stroke-width="1"/>
    <line x1="0" y1="300" x2="500" y2="300" stroke="#14b8a6" stroke-width="1"/>
    <line x1="0" y1="400" x2="500" y2="400" stroke="#14b8a6" stroke-width="1"/>
    <line x1="100" y1="0" x2="100" y2="500" stroke="#14b8a6" stroke-width="1"/>
    <line x1="200" y1="0" x2="200" y2="500" stroke="#14b8a6" stroke-width="1"/>
    <line x1="300" y1="0" x2="300" y2="500" stroke="#14b8a6" stroke-width="1"/>
    <line x1="400" y1="0" x2="400" y2="500" stroke="#14b8a6" stroke-width="1"/>
  </g>
  <path d="M250 80 L380 140 L380 280 Q380 380 250 440 Q120 380 120 280 L120 140 Z" fill="none" stroke="url(#glow)" stroke-width="4" filter="url(#shadow)"/>
  <text x="195" y="300" font-family="monospace" font-size="120" font-weight="bold" fill="#14b8a6" opacity="0.9">&lt;</text>
  <text x="265" y="300" font-family="monospace" font-size="120" font-weight="bold" fill="#14b8a6" opacity="0.9">/&gt;</text>
  <rect x="225" y="270" width="50" height="40" rx="5" fill="#14b8a6" opacity="0.8"/>
  <path d="M235 270 L235 255 Q235 240 250 240 Q265 240 265 255 L265 270" fill="none" stroke="#14b8a6" stroke-width="5" opacity="0.8"/>
  <line x1="150" y1="460" x2="350" y2="460" stroke="#14b8a6" stroke-width="2" opacity="0.5"/>
</svg>